<svg width="61" height="14" viewBox="0 0 61 14" fill="none" xmlns="http://www.w3.org/2000/svg">
<path d="M0.386 0.184H2.708V11.092H8.702V13H0.386V0.184ZM15.2229 13.162C13.4589 13.162 12.1209 12.712 11.2089 11.812C10.3089 10.9 9.85892 9.568 9.85892 7.816V0.184H12.1449V7.942C12.1449 9.046 12.4029 9.886 12.9189 10.462C13.4349 11.026 14.2029 11.308 15.2229 11.308C16.2189 11.308 16.9749 11.02 17.4909 10.444C18.0189 9.868 18.2829 9.034 18.2829 7.942V0.184H20.5689V7.816C20.5689 9.556 20.1129 10.882 19.2009 11.794C18.2889 12.706 16.9629 13.162 15.2229 13.162ZM33.9471 6.07V12.226C33.3591 12.514 32.6511 12.742 31.8231 12.91C30.9951 13.078 30.1491 13.162 29.2851 13.162C27.9651 13.162 26.8191 12.898 25.8471 12.37C24.8751 11.842 24.1311 11.086 23.6151 10.102C23.0991 9.118 22.8411 7.942 22.8411 6.574C22.8411 5.23 23.0991 4.066 23.6151 3.082C24.1311 2.098 24.8631 1.342 25.8111 0.813999C26.7711 0.286 27.8931 0.0219997 29.1771 0.0219997C30.0771 0.0219997 30.9171 0.153999 31.6971 0.417999C32.4891 0.681999 33.1491 1.054 33.6771 1.534L32.8851 3.226C32.2851 2.758 31.6971 2.422 31.1211 2.218C30.5451 2.014 29.9151 1.912 29.2311 1.912C27.9111 1.912 26.9091 2.308 26.2251 3.1C25.5531 3.892 25.2171 5.05 25.2171 6.574C25.2171 8.146 25.5651 9.334 26.2611 10.138C26.9571 10.93 27.9951 11.326 29.3751 11.326C30.2151 11.326 31.0431 11.212 31.8591 10.984V7.744H29.0871V6.07H33.9471ZM45.0758 9.994H38.8118L37.5158 13H35.1758L40.9718 0.184H42.8618L48.6758 13H46.3538L45.0758 9.994ZM44.3018 8.194L41.9438 2.704L39.5858 8.194H44.3018ZM60.6098 13H58.1618L56.5238 8.734C56.3798 8.338 56.1578 8.062 55.8578 7.906C55.5578 7.75 55.1678 7.672 54.6878 7.672H52.3658V13H50.0618V0.184H55.5518C57.0038 0.184 58.1078 0.502 58.8638 1.138C59.6198 1.774 59.9978 2.686 59.9978 3.874C59.9978 4.726 59.7698 5.452 59.3138 6.052C58.8698 6.64 58.2338 7.06 57.4058 7.312C58.1618 7.468 58.7078 7.996 59.0438 8.896L60.6098 13ZM55.2278 5.872C56.1038 5.872 56.7518 5.71 57.1718 5.386C57.5918 5.062 57.8018 4.57 57.8018 3.91C57.8018 3.262 57.5918 2.782 57.1718 2.47C56.7638 2.146 56.1158 1.984 55.2278 1.984H52.3298V5.872H55.2278Z" fill="#1E3240"/>
</svg>
